<svg width="218" height="56" viewBox="0 0 218 56" fill="none" xmlns="http://www.w3.org/2000/svg">
<g clip-path="url(#clip0_46_37393)">
<path d="M9.05094 38.0798V52.3038H4.02246V14.9518H9.05094V18.8158C11.0065 16.1278 14.247 14.2798 17.8787 14.2798C24.9186 14.2798 29.8912 19.5998 29.8912 28.4478C29.8912 37.2958 24.9186 42.6718 17.8787 42.6718C14.3588 42.6718 11.2299 41.0478 9.05094 38.0798ZM24.6392 28.4478C24.6392 22.8478 21.5663 18.7598 16.5378 18.7598C13.4648 18.7598 10.3919 20.5518 9.05094 22.7358V34.2158C10.3919 36.3438 13.4648 38.1918 16.5378 38.1918C21.5663 38.1918 24.6392 34.1038 24.6392 28.4478ZM33.9223 38.4718L36.3248 34.7758C38.1686 36.7918 41.7444 38.6398 45.376 38.6398C49.1753 38.6398 51.1867 37.0718 51.1867 34.7758C51.1867 32.0878 48.1138 31.1918 44.6497 30.4078C40.0682 29.3438 34.7045 28.1118 34.7045 22.2878C34.7045 17.9758 38.392 14.2798 44.9849 14.2798C49.6223 14.2798 52.9746 15.9598 55.2654 18.1438L53.0305 21.6718C51.4661 19.7678 48.449 18.3678 45.0408 18.3678C41.6326 18.3678 39.5095 19.7118 39.5095 21.8958C39.5095 24.2478 42.4148 25.0318 45.7671 25.8158C50.4604 26.8798 56.0476 28.1678 56.0476 34.3838C56.0476 39.0318 52.2483 42.6718 45.1526 42.6718C40.6269 42.6718 36.66 41.2718 33.9223 38.4718ZM61.0634 52.5838L61.8456 48.0478C62.4602 48.3278 63.41 48.4958 64.0805 48.4958C65.9243 48.4958 67.1535 47.8798 67.9916 45.8638L69.556 42.2798L58.4374 14.9518H63.8011L72.2378 36.1758L80.6742 14.9518H86.0938L72.7965 47.1518C71.0645 51.4078 68.1033 52.9198 64.1922 52.9758C63.3542 52.9758 61.8456 52.8078 61.0634 52.5838Z" fill="#F5F5F7"/>
<path d="M128.835 28.4478C128.835 20.6078 134.478 14.2798 142.356 14.2798C150.457 14.2798 155.486 20.6078 155.486 28.8958V30.1278H134.143C134.534 34.7198 137.886 38.5278 143.306 38.5278C146.155 38.5278 149.284 37.4078 151.296 35.3358L153.642 38.6398C150.96 41.2718 147.161 42.6718 142.803 42.6718C134.757 42.6718 128.835 36.9598 128.835 28.4478ZM142.356 18.4238C136.936 18.4238 134.366 22.7918 134.087 26.4878H150.569C150.457 22.9038 148.055 18.4238 142.356 18.4238ZM182.72 41.9998H177.021L169.479 31.4718L161.88 41.9998H156.181L166.294 28.1118L156.796 14.9518H162.495L169.479 24.6958L176.407 14.9518H182.106L172.552 28.1118L182.72 41.9998ZM208.88 41.9998H203.852V39.0318C201.729 41.3838 198.656 42.6718 195.024 42.6718C190.554 42.6718 185.637 39.6478 185.637 33.7118C185.637 27.5518 190.498 24.8638 195.024 24.8638C198.656 24.8638 201.784 26.0398 203.852 28.4478V23.9678C203.852 20.6078 201.114 18.5918 197.259 18.5918C194.186 18.5918 191.56 19.7678 189.157 22.1758L186.978 18.7038C189.995 15.7358 193.683 14.2798 198.041 14.2798C203.908 14.2798 208.88 16.8558 208.88 23.7438V41.9998ZM203.852 36.0638V31.4718C202.343 29.4558 199.717 28.3918 196.924 28.3918C193.292 28.3918 190.722 30.5758 190.722 33.7678C190.722 36.9598 193.292 39.1438 196.924 39.1438C199.717 39.1438 202.343 38.0798 203.852 36.0638Z" fill="#F5F5F7"/>
<path d="M99.7086 38.8014V44.8029C99.2477 48.1009 91.8757 47.9377 91.5684 44.8029V23.2674C91.5684 19.0605 96.3291 16.287 99.7086 20.1677L105.084 28.3599L110.459 36.6804C114.299 43.5327 121.056 41.0854 121.056 36.0279V30.8071V25.4233V16.5784C121.056 11.0664 109.691 11.0663 109.691 16.5784V24.4094" stroke="#F5F5F7" stroke-width="3.5" stroke-linecap="round"/>
<path d="M115.624 9.33333C118.195 9.33333 120.28 7.244 120.28 4.66667C120.28 2.08934 118.195 0 115.624 0C113.052 0 110.968 2.08934 110.968 4.66667C110.968 7.244 113.052 9.33333 115.624 9.33333Z" fill="#F5F5F7"/>
<path d="M111.356 4.66667C112.908 5.31481 116.4 5.98889 119.504 3.5" stroke="#0A6EBD" stroke-linecap="round"/>
<path d="M116.012 5.83339C116.441 5.83339 116.788 5.48516 116.788 5.05561C116.788 4.62605 116.441 4.27783 116.012 4.27783C115.584 4.27783 115.236 4.62605 115.236 5.05561C115.236 5.48516 115.584 5.83339 116.012 5.83339Z" fill="#F5F5F7" stroke="#0A6EBD"/>
<path d="M115.624 8.94423C117.982 8.94423 119.892 7.029 119.892 4.66645C119.892 2.3039 117.982 0.388672 115.624 0.388672C113.267 0.388672 111.356 2.3039 111.356 4.66645C111.356 7.029 113.267 8.94423 115.624 8.94423Z" stroke="#0A6EBD"/>
</g>
<defs>
<clipPath id="clip0_46_37393">
<rect width="217.28" height="56" fill="white"/>
</clipPath>
</defs>
</svg>
