<svg width="57" height="40" viewBox="0 0 57 40" fill="none" xmlns="http://www.w3.org/2000/svg">
<path d="M56.4711 0H0V40.0004H56.4711V0Z" fill="#E30A17"/>
<path d="M40.263 22.9012L37.0544 21.7637L35.0447 24.6544L35.0714 21.0608L31.8633 19.9229L35.0881 18.8396L35.1148 15.2461L37.0811 18.1702L40.3064 17.0869L38.2966 19.9772L40.263 22.9012Z" fill="white"/>
<path d="M26.7834 27.9849C22.6222 27.9849 19.2489 24.4067 19.2489 19.9931C19.2489 15.5795 22.6222 12.0014 26.7834 12.0014C29.0021 12.0014 30.9968 13.0188 32.3754 14.6376C30.7023 11.8491 27.7666 10 24.4237 10C19.2192 10 15 14.4829 15 20.0127C15 25.5426 19.2192 30.0254 24.4237 30.0254C27.8183 30.0254 30.7933 28.1183 32.4522 25.2577C31.0711 26.9295 29.0438 27.9853 26.7834 27.9853V27.9849Z" fill="white"/>
</svg>
