<svg width="611" height="480" viewBox="0 0 611 480" fill="none" xmlns="http://www.w3.org/2000/svg">
<g clip-path="url(#clip0_46_36994)">
<g filter="url(#filter0_d_46_36994)">
<path d="M301.407 392.467L300.68 393.643L294.589 403.491C294.589 403.491 284.89 423.161 291.84 429.191C298.791 435.221 311.462 427.813 317.012 413.427C321.359 402.163 337.334 383.442 344.073 375.844C345.936 373.733 347.099 372.481 347.099 372.481" stroke="#B3D0FF" stroke-width="0.5" stroke-linecap="round" stroke-linejoin="round"/>
<path d="M282.657 296.279C271.954 304.395 251.063 320.702 245.514 328.932C237.625 340.6 227.636 365.478 225.773 370.168C223.91 374.858 225.522 393.39 224.293 401.468C223.051 409.546 218.056 424.4 227.094 426.346C227.094 426.346 248.791 426.852 250.363 404.945C250.363 404.945 254.591 388.978 252.768 380.104C252.768 380.104 263.378 368.803 270.104 355.416C271.069 353.494 272.562 351.863 274.372 350.599C280.767 346.137 295.818 335.645 301.962 331.523L275.614 353.583C273.658 355.213 272.073 357.198 270.91 359.423C267.673 365.642 261.172 378.701 260.247 384.744C259.005 392.821 257.802 399.256 259.11 406.259C260.419 413.25 261.647 438.292 265.043 443.614C268.439 448.936 281.018 448.431 284.639 440.277C288.259 432.111 291.14 421.783 284.11 404.287C284.11 404.287 290.704 395.565 293.532 386.273" stroke="#B3D0FF" stroke-width="0.5" stroke-linecap="round" stroke-linejoin="round"/>
<path d="M610.973 227.75C610.973 227.75 530.609 222.871 491.629 229.507C458.74 235.12 412.942 244.791 379.631 241.593C364.528 240.139 349.28 241.466 334.52 244.841C326.314 246.725 316.84 248.874 306.864 251.137C281.6 256.838 252.504 258.469 243.532 259.998C234.56 261.528 189.343 283.739 179.988 286.937C170.646 290.135 148.831 303.687 147.39 308.857C145.95 314.028 152.966 325.948 172.853 322.232C192.726 318.515 203.838 310.058 203.838 310.058L252.358 298.175C252.358 298.175 289.713 294.433 298.553 295.875C307.393 297.316 342.065 287.797 353.587 298.087C365.096 308.364 345.289 322.244 333.912 329.867C322.535 337.49 311.026 346.882 303.799 354.682C296.571 362.469 288.009 370.497 288.828 377.348C289.647 384.2 302.715 400.343 318.598 392.391C334.48 384.44 359.613 357.413 386.515 354.581C413.405 351.749 467.342 339.487 494.311 317.403C521.28 295.318 611 336.757 611 336.757" stroke="#B3D0FF" stroke-width="0.5" stroke-linecap="round" stroke-linejoin="round"/>
<path d="M309.269 394.502L327.319 376.868C327.319 376.868 325.086 359.979 310.815 356.945C310.815 356.945 292.369 367.589 288.934 374.693" stroke="#B3D0FF" stroke-width="0.5" stroke-linecap="round" stroke-linejoin="round"/>
<path d="M194.549 280.718L235.788 283.512L251.578 258.987L288.259 268.822L275.138 296.279L266.311 264.158" stroke="#B3D0FF" stroke-width="0.5" stroke-linecap="round" stroke-linejoin="round"/>
<path d="M288.26 268.822L300.667 252.452L327.306 273.221L379.089 243.919L419.84 279.466L453.323 265.194L462.612 234.615" stroke="#B3D0FF" stroke-width="0.5" stroke-linecap="round" stroke-linejoin="round"/>
<path d="M187.176 318.364L196.967 297.619L216.576 306.936" stroke="#B3D0FF" stroke-width="0.5" stroke-linecap="round" stroke-linejoin="round"/>
<path d="M196.968 297.619L180.702 286.685L175.654 316.088L150.8 317.706" stroke="#B3D0FF" stroke-width="0.5" stroke-linecap="round" stroke-linejoin="round"/>
<path d="M235.789 283.511L261.873 297.303L266.312 262.931" stroke="#B3D0FF" stroke-width="0.5" stroke-linecap="round" stroke-linejoin="round"/>
<path d="M216.576 306.936L223.579 282.689L235.789 302.195" stroke="#B3D0FF" stroke-width="0.5" stroke-linecap="round" stroke-linejoin="round"/>
<path d="M428.111 239.848L453.323 265.194" stroke="#B3D0FF" stroke-width="0.5" stroke-linecap="round" stroke-linejoin="round"/>
<path d="M419.84 279.466L424.28 256.737L453.323 265.194" stroke="#B3D0FF" stroke-width="0.5" stroke-linecap="round" stroke-linejoin="round"/>
<path d="M394.575 257.419L424.279 256.737" stroke="#B3D0FF" stroke-width="0.5" stroke-linecap="round" stroke-linejoin="round"/>
<path d="M417.382 241.023L408.661 257.04L428.111 239.848" stroke="#B3D0FF" stroke-width="0.5" stroke-linecap="round" stroke-linejoin="round"/>
<path d="M458.793 247.218L482.511 263.323L534.81 236.776L576.221 261.25L606.811 227.522" stroke="#B3D0FF" stroke-width="0.5" stroke-linecap="round" stroke-linejoin="round"/>
<path d="M482.512 263.323L499.61 234.615L519.06 244.766" stroke="#B3D0FF" stroke-width="0.5" stroke-linecap="round" stroke-linejoin="round"/>
<path d="M462.611 234.615L482.511 263.323" stroke="#B3D0FF" stroke-width="0.5" stroke-linecap="round" stroke-linejoin="round"/>
<path d="M519.06 244.765L521.861 226.638L534.81 236.776" stroke="#B3D0FF" stroke-width="0.5" stroke-linecap="round" stroke-linejoin="round"/>
<path d="M546.055 243.426L573.288 234.615L576.221 261.25" stroke="#B3D0FF" stroke-width="0.5" stroke-linecap="round" stroke-linejoin="round"/>
<path d="M587.823 248.444L573.288 234.615" stroke="#B3D0FF" stroke-width="0.5" stroke-linecap="round" stroke-linejoin="round"/>
<path d="M555.437 248.962L532.802 263.323L510.788 248.962" stroke="#B3D0FF" stroke-width="0.5" stroke-linecap="round" stroke-linejoin="round"/>
<path d="M525.429 241.529L532.802 263.323L542.857 241.529" stroke="#B3D0FF" stroke-width="0.5" stroke-linecap="round" stroke-linejoin="round"/>
<path d="M369.787 335.973L394.576 301.272L436.079 344.468L397.72 322.32L369.787 335.973Z" stroke="#B3D0FF" stroke-width="0.5" stroke-linecap="round" stroke-linejoin="round"/>
<path d="M424.279 331.701L462.612 286.685L500.786 313.649" stroke="#B3D0FF" stroke-width="0.5" stroke-linecap="round" stroke-linejoin="round"/>
<path d="M360.511 363.835L369.787 335.973" stroke="#B3D0FF" stroke-width="0.5" stroke-linecap="round" stroke-linejoin="round"/>
<path d="M462.611 286.685V335.278" stroke="#B3D0FF" stroke-width="0.5" stroke-linecap="round" stroke-linejoin="round"/>
<path d="M405.292 312.258L424.28 297.619L443.439 309.199" stroke="#B3D0FF" stroke-width="0.5" stroke-linecap="round" stroke-linejoin="round"/>
<path d="M488.457 304.938L503.362 275.61L540.941 304.938L573.288 274.068L597.905 304.938L576.221 322.32L573.288 274.068" stroke="#B3D0FF" stroke-width="0.5" stroke-linecap="round" stroke-linejoin="round"/>
<path d="M490.532 306.405L505.781 290.691L540.942 304.938H575.165" stroke="#B3D0FF" stroke-width="0.5" stroke-linecap="round" stroke-linejoin="round"/>
<path d="M322.588 337.995L349.306 340.915L365.149 309.198L388.14 310.273" stroke="#B3D0FF" stroke-width="0.5" stroke-linecap="round" stroke-linejoin="round"/>
<path d="M365.149 309.199L356.943 306.405" stroke="#B3D0FF" stroke-width="0.5" stroke-linecap="round" stroke-linejoin="round"/>
<path d="M403.178 352.142L397.721 322.321" stroke="#B3D0FF" stroke-width="0.5" stroke-linecap="round" stroke-linejoin="round"/>
<path d="M424.372 277.633L452.517 298.542L469.007 254.146" stroke="#B3D0FF" stroke-width="0.5" stroke-linecap="round" stroke-linejoin="round"/>
<path d="M264.423 310.526L267.779 331.7L241.405 337.237L243.757 353.405L225.231 372.481" stroke="#B3D0FF" stroke-width="0.5" stroke-linecap="round" stroke-linejoin="round"/>
<path d="M255.609 334.254L261.873 349.904L238.802 358.5" stroke="#B3D0FF" stroke-width="0.5" stroke-linecap="round" stroke-linejoin="round"/>
<path d="M293.584 337.237L271.742 335.973L272.495 352.141" stroke="#B3D0FF" stroke-width="0.5" stroke-linecap="round" stroke-linejoin="round"/>
<path d="M224.795 392.821L237.493 400.444L251.526 399.786" stroke="#B3D0FF" stroke-width="0.5" stroke-linecap="round" stroke-linejoin="round"/>
<path d="M221.809 417.029L237.493 400.444" stroke="#B3D0FF" stroke-width="0.5" stroke-linecap="round" stroke-linejoin="round"/>
<path d="M258.608 401.885L267.779 417.03L263.193 438.09" stroke="#B3D0FF" stroke-width="0.5" stroke-linecap="round" stroke-linejoin="round"/>
<path d="M285.18 407.106L277.292 419.988L282.657 431.289L275.112 436.56L265.043 443.589" stroke="#B3D0FF" stroke-width="0.5" stroke-linecap="round" stroke-linejoin="round"/>
<path d="M281.402 444.322L275.112 436.561" stroke="#B3D0FF" stroke-width="0.5" stroke-linecap="round" stroke-linejoin="round"/>
<path d="M299.649 295.988L301.949 301.272L325.323 297.619L324.385 317.655L347.76 319.526" stroke="#B3D0FF" stroke-width="0.5" stroke-linecap="round" stroke-linejoin="round"/>
<path d="M350.719 316.695L341.681 301.272L324.385 317.656" stroke="#B3D0FF" stroke-width="0.5" stroke-linecap="round" stroke-linejoin="round"/>
<path d="M325.323 297.619L338.709 293.372L341.682 301.272" stroke="#B3D0FF" stroke-width="0.5" stroke-linecap="round" stroke-linejoin="round"/>
<path opacity="0.18" d="M289.832 380.635C289.832 380.635 286.053 374.794 292.62 370.029C300.284 364.466 310.802 356.945 310.802 356.945C310.802 356.945 318.347 358.158 321.729 363.834C325.112 369.523 328.574 375.629 327.319 376.868C326.063 378.106 309.269 394.502 309.269 394.502C309.269 394.502 298.249 395.375 289.832 380.622V380.635Z" fill="url(#paint0_linear_46_36994)"/>
<path opacity="0.18" d="M202.768 285.686C205.926 286.634 209.349 286.28 212.361 284.952C223.963 279.871 260.274 265.371 294.919 266.471C336.886 267.811 394.655 247.939 421.175 251.175C447.694 254.398 485.604 230.557 485.604 230.557L436.582 238.748C436.582 238.748 406.309 243.211 388.141 242.136C369.972 241.062 356.653 238.597 318.743 248.457C280.834 258.317 245.686 257.495 240.07 260.276C234.89 262.843 185.829 280.616 202.768 285.698V285.686Z" fill="url(#paint1_linear_46_36994)"/>
<path opacity="0.18" d="M314.581 344.468C314.581 344.468 341.841 316.72 369.774 319.526C397.707 322.32 431.217 301.247 451.354 306.215C471.492 311.183 454.552 337.338 443.439 343.191C432.327 349.057 402.345 350.953 377.755 356.313C353.165 361.673 354.208 346.377 314.581 344.468Z" fill="url(#paint2_linear_46_36994)"/>
<path opacity="0.18" d="M270.051 306.165C270.051 306.165 241.364 325.999 232.26 354.695C223.156 383.391 244.787 370.37 250.336 375.73C255.886 381.09 266.444 361.938 266.444 361.938C266.444 361.938 276.843 335.076 300.614 326.366C313.854 321.524 306.586 311.942 301.948 301.272C301.063 299.237 300.072 296.924 299.319 295.976C295.659 295.243 288.259 295.71 282.934 295.824C280.225 298.314 275.482 301.576 270.038 306.165H270.051Z" fill="url(#paint3_linear_46_36994)"/>
</g>
<g opacity="0.65">
<g style="mix-blend-mode:screen">
<path d="M573.341 269.05C572.667 269.012 571.993 268.962 571.319 268.924C571.993 268.962 572.667 269 573.341 269.05Z" fill="url(#paint4_linear_46_36994)"/>
</g>
</g>
<g opacity="0.65">
<g style="mix-blend-mode:screen">
<path d="M214.595 280.769C213.921 280.731 213.247 280.68 212.573 280.642C213.247 280.68 213.921 280.718 214.595 280.769Z" fill="url(#paint5_linear_46_36994)"/>
</g>
</g>
<g filter="url(#filter1_d_46_36994)">
<path d="M72.8536 139.122C68.9424 141.398 62.666 147.023 60.7368 149.059C43.0439 167.743 23.8711 184.909 38.8685 232.82C38.8685 232.82 87.0978 238.458 120.977 270.593C132.275 281.3 141.973 294.953 147.761 312.322C170.911 381.799 75.4038 374.163 38.0624 344.431C-2.19913 312.385 -5.81963 261.933 8.12063 245.917C8.12063 245.917 30.7157 310.982 101.963 321.057C101.963 321.057 71.1094 306.014 45.9905 279.543C14.4631 246.321 9.28341 196.679 35.2215 159.298C38.9345 153.938 43.3611 148.73 48.6068 143.901C86.8996 108.669 84.9704 47.7001 34.9308 32.7959C34.9308 32.7959 80.8214 34.9828 87.5074 82.6661C89.2252 94.9409 86.9921 108.935 82.7373 120.54" stroke="#B3D0FF" stroke-width="0.5" stroke-linecap="round" stroke-linejoin="round"/>
<path d="M82.7372 120.552C82.7372 120.552 140.956 81.174 192.29 128.099C192.29 128.099 205.332 144.482 223.488 143.407C223.488 143.407 201.857 169.512 144.814 170.928C87.7716 172.331 76.9365 147.807 76.9365 147.807C76.9365 147.807 117.885 124.799 172.642 142.737C172.642 142.737 116.709 111.437 72.8535 139.122" stroke="#B3D0FF" stroke-width="0.5" stroke-linecap="round" stroke-linejoin="round"/>
</g>
<g opacity="0.18">
<path d="M72.1134 139.122C68.2022 141.398 61.9258 147.023 59.9966 149.059C42.3037 167.743 23.1309 184.909 38.1282 232.82C38.1282 232.82 86.3575 238.458 120.237 270.593C131.535 281.3 141.233 294.953 147.021 312.322C170.171 381.799 74.6636 374.163 37.3222 344.431C-2.93936 312.385 -6.55986 261.933 7.38039 245.917C7.38039 245.917 29.9755 310.982 101.223 321.057C101.223 321.057 70.3692 306.014 45.2503 279.543C13.7229 246.321 8.54318 196.679 34.4813 159.298C38.1943 153.938 42.6208 148.73 47.8666 143.901C86.1593 108.669 84.2302 47.7001 34.1906 32.7959C34.1906 32.7959 80.0811 34.9828 86.7672 82.6661C88.4849 94.9409 86.2518 108.935 81.9971 120.54" fill="url(#paint6_linear_46_36994)"/>
<path d="M81.997 120.552C81.997 120.552 140.216 81.174 191.55 128.099C191.55 128.099 204.592 144.482 222.747 143.407C222.747 143.407 201.117 169.512 144.074 170.928C87.0313 172.331 76.1963 147.807 76.1963 147.807C76.1963 147.807 117.145 124.799 171.902 142.737C171.902 142.737 115.969 111.437 72.1133 139.122" fill="url(#paint7_linear_46_36994)"/>
</g>
<g filter="url(#filter2_d_46_36994)">
<path d="M150.998 326.215L127.623 323.826L110.036 305.47L137.084 289.947" stroke="#B3D0FF" stroke-width="0.5" stroke-linecap="round" stroke-linejoin="round"/>
</g>
<g filter="url(#filter3_d_46_36994)">
<path d="M119.484 363.962V340.891L142.555 354.38L122.88 328.781L145.21 305.47H110.036L122.51 272.072" stroke="#B3D0FF" stroke-width="0.5" stroke-linecap="round" stroke-linejoin="round"/>
</g>
<g filter="url(#filter4_d_46_36994)">
<path d="M85.34 262.667L89.8987 277.824H109.098L99.0424 308.074L79.2354 289.947L85.34 262.667Z" stroke="#B3D0FF" stroke-width="0.5" stroke-linecap="round" stroke-linejoin="round"/>
</g>
<g filter="url(#filter5_d_46_36994)">
<path d="M79.2354 289.947L89.8987 277.824L99.0424 308.075L127.623 323.826" stroke="#B3D0FF" stroke-width="0.5" stroke-linecap="round" stroke-linejoin="round"/>
</g>
</g>
<defs>
<filter id="filter0_d_46_36994" x="128.959" y="207.771" width="500.291" height="257.581" filterUnits="userSpaceOnUse" color-interpolation-filters="sRGB">
<feFlood flood-opacity="0" result="BackgroundImageFix"/>
<feColorMatrix in="SourceAlpha" type="matrix" values="0 0 0 0 0 0 0 0 0 0 0 0 0 0 0 0 0 0 127 0" result="hardAlpha"/>
<feOffset/>
<feGaussianBlur stdDeviation="9"/>
<feColorMatrix type="matrix" values="0 0 0 0 0.184314 0 0 0 0 0.403922 0 0 0 0 0.878431 0 0 0 0.75 0"/>
<feBlend mode="normal" in2="BackgroundImageFix" result="effect1_dropShadow_46_36994"/>
<feBlend mode="normal" in="SourceGraphic" in2="effect1_dropShadow_46_36994" result="shape"/>
</filter>
<filter id="filter1_d_46_36994" x="-17.5098" y="14.5459" width="259.247" height="369.864" filterUnits="userSpaceOnUse" color-interpolation-filters="sRGB">
<feFlood flood-opacity="0" result="BackgroundImageFix"/>
<feColorMatrix in="SourceAlpha" type="matrix" values="0 0 0 0 0 0 0 0 0 0 0 0 0 0 0 0 0 0 127 0" result="hardAlpha"/>
<feOffset/>
<feGaussianBlur stdDeviation="9"/>
<feColorMatrix type="matrix" values="0 0 0 0 0.184314 0 0 0 0 0.403922 0 0 0 0 0.878431 0 0 0 0.75 0"/>
<feBlend mode="normal" in2="BackgroundImageFix" result="effect1_dropShadow_46_36994"/>
<feBlend mode="normal" in="SourceGraphic" in2="effect1_dropShadow_46_36994" result="shape"/>
</filter>
<filter id="filter2_d_46_36994" x="91.7861" y="271.697" width="77.4619" height="72.7681" filterUnits="userSpaceOnUse" color-interpolation-filters="sRGB">
<feFlood flood-opacity="0" result="BackgroundImageFix"/>
<feColorMatrix in="SourceAlpha" type="matrix" values="0 0 0 0 0 0 0 0 0 0 0 0 0 0 0 0 0 0 127 0" result="hardAlpha"/>
<feOffset/>
<feGaussianBlur stdDeviation="9"/>
<feColorMatrix type="matrix" values="0 0 0 0 0.184314 0 0 0 0 0.403922 0 0 0 0 0.878431 0 0 0 0.75 0"/>
<feBlend mode="normal" in2="BackgroundImageFix" result="effect1_dropShadow_46_36994"/>
<feBlend mode="normal" in="SourceGraphic" in2="effect1_dropShadow_46_36994" result="shape"/>
</filter>
<filter id="filter3_d_46_36994" x="91.7861" y="253.822" width="71.6748" height="128.39" filterUnits="userSpaceOnUse" color-interpolation-filters="sRGB">
<feFlood flood-opacity="0" result="BackgroundImageFix"/>
<feColorMatrix in="SourceAlpha" type="matrix" values="0 0 0 0 0 0 0 0 0 0 0 0 0 0 0 0 0 0 127 0" result="hardAlpha"/>
<feOffset/>
<feGaussianBlur stdDeviation="9"/>
<feColorMatrix type="matrix" values="0 0 0 0 0.184314 0 0 0 0 0.403922 0 0 0 0 0.878431 0 0 0 0.75 0"/>
<feBlend mode="normal" in2="BackgroundImageFix" result="effect1_dropShadow_46_36994"/>
<feBlend mode="normal" in="SourceGraphic" in2="effect1_dropShadow_46_36994" result="shape"/>
</filter>
<filter id="filter4_d_46_36994" x="60.9854" y="244.417" width="66.3623" height="81.9077" filterUnits="userSpaceOnUse" color-interpolation-filters="sRGB">
<feFlood flood-opacity="0" result="BackgroundImageFix"/>
<feColorMatrix in="SourceAlpha" type="matrix" values="0 0 0 0 0 0 0 0 0 0 0 0 0 0 0 0 0 0 127 0" result="hardAlpha"/>
<feOffset/>
<feGaussianBlur stdDeviation="9"/>
<feColorMatrix type="matrix" values="0 0 0 0 0.184314 0 0 0 0 0.403922 0 0 0 0 0.878431 0 0 0 0.75 0"/>
<feBlend mode="normal" in2="BackgroundImageFix" result="effect1_dropShadow_46_36994"/>
<feBlend mode="normal" in="SourceGraphic" in2="effect1_dropShadow_46_36994" result="shape"/>
</filter>
<filter id="filter5_d_46_36994" x="60.9854" y="259.574" width="84.8877" height="82.502" filterUnits="userSpaceOnUse" color-interpolation-filters="sRGB">
<feFlood flood-opacity="0" result="BackgroundImageFix"/>
<feColorMatrix in="SourceAlpha" type="matrix" values="0 0 0 0 0 0 0 0 0 0 0 0 0 0 0 0 0 0 127 0" result="hardAlpha"/>
<feOffset/>
<feGaussianBlur stdDeviation="9"/>
<feColorMatrix type="matrix" values="0 0 0 0 0.184314 0 0 0 0 0.403922 0 0 0 0 0.878431 0 0 0 0.75 0"/>
<feBlend mode="normal" in2="BackgroundImageFix" result="effect1_dropShadow_46_36994"/>
<feBlend mode="normal" in="SourceGraphic" in2="effect1_dropShadow_46_36994" result="shape"/>
</filter>
<linearGradient id="paint0_linear_46_36994" x1="288.748" y1="375.73" x2="327.57" y2="375.73" gradientUnits="userSpaceOnUse">
<stop stop-color="#CAE3FF"/>
<stop offset="1" stop-color="#CAE3FF" stop-opacity="0"/>
</linearGradient>
<linearGradient id="paint1_linear_46_36994" x1="199.227" y1="258.393" x2="485.604" y2="258.393" gradientUnits="userSpaceOnUse">
<stop stop-color="#CAE3FF"/>
<stop offset="1" stop-color="#CAE3FF" stop-opacity="0"/>
</linearGradient>
<linearGradient id="paint2_linear_46_36994" x1="374.412" y1="307.138" x2="405.808" y2="363.989" gradientUnits="userSpaceOnUse">
<stop stop-color="#CAE3FF"/>
<stop offset="1" stop-color="#CAE3FF" stop-opacity="0"/>
</linearGradient>
<linearGradient id="paint3_linear_46_36994" x1="252.635" y1="312.561" x2="280.016" y2="362.129" gradientUnits="userSpaceOnUse">
<stop stop-color="#CAE3FF"/>
<stop offset="1" stop-color="#CAE3FF" stop-opacity="0"/>
</linearGradient>
<linearGradient id="paint4_linear_46_36994" x1="572.367" y1="269.016" x2="572.367" y2="269.016" gradientUnits="userSpaceOnUse">
<stop stop-color="white"/>
<stop offset="0.27" stop-color="#FEFEFC"/>
<stop offset="0.42" stop-color="#FEFCF4"/>
<stop offset="0.53" stop-color="#FDF9E7"/>
<stop offset="0.63" stop-color="#FCF4D3"/>
<stop offset="0.72" stop-color="#FAEEBA"/>
<stop offset="0.81" stop-color="#F8E79B"/>
<stop offset="0.88" stop-color="#F5DE77"/>
<stop offset="0.96" stop-color="#F3D44D"/>
<stop offset="1" stop-color="#F1CD30"/>
</linearGradient>
<linearGradient id="paint5_linear_46_36994" x1="213.617" y1="280.731" x2="213.617" y2="280.731" gradientUnits="userSpaceOnUse">
<stop stop-color="white"/>
<stop offset="0.27" stop-color="#FEFEFC"/>
<stop offset="0.42" stop-color="#FEFCF4"/>
<stop offset="0.53" stop-color="#FDF9E7"/>
<stop offset="0.63" stop-color="#FCF4D3"/>
<stop offset="0.72" stop-color="#FAEEBA"/>
<stop offset="0.81" stop-color="#F8E79B"/>
<stop offset="0.88" stop-color="#F5DE77"/>
<stop offset="0.96" stop-color="#F3D44D"/>
<stop offset="1" stop-color="#F1CD30"/>
</linearGradient>
<linearGradient id="paint6_linear_46_36994" x1="0.0072519" y1="199.485" x2="150.602" y2="199.485" gradientUnits="userSpaceOnUse">
<stop stop-color="#CAE3FF"/>
<stop offset="0.35" stop-color="#CAE3FF" stop-opacity="0"/>
</linearGradient>
<linearGradient id="paint7_linear_46_36994" x1="72.1133" y1="138.035" x2="222.747" y2="138.035" gradientUnits="userSpaceOnUse">
<stop offset="0.43" stop-color="#CAE3FF" stop-opacity="0"/>
<stop offset="1" stop-color="#CAE3FF"/>
</linearGradient>
<clipPath id="clip0_46_36994">
<rect width="611" height="480" fill="white"/>
</clipPath>
</defs>
</svg>
